<svg width="121" height="124" viewBox="0 0 121 124" fill="none" xmlns="http://www.w3.org/2000/svg">
<path d="M5.28439 26.4253C4.76915 26.425 4.27463 26.6294 3.9104 26.9934C3.54591 27.3572 3.34153 27.8508 3.34179 28.3654C3.34179 29.3943 2.10488 29.9284 2.09355 29.9342C1.60941 30.1249 1.22242 30.5018 1.01878 30.9803C0.81516 31.4585 0.812376 31.9984 1.01094 32.4789C1.20924 32.9593 1.59245 33.3403 2.07457 33.5361C2.15627 33.5702 3.34178 34.0987 3.34178 35.1086C3.34178 35.8018 3.71209 36.4422 4.31308 36.7888C4.91406 37.1354 5.6547 37.1354 6.25567 36.7888C6.85664 36.4422 7.22696 35.8018 7.22696 35.1086C7.22696 34.0797 8.46206 33.5474 8.47521 33.5437C8.96136 33.3519 9.34989 32.9728 9.5525 32.4915C9.75536 32.0102 9.75536 31.4679 9.5525 30.9866C9.3499 30.5053 8.96138 30.1259 8.47521 29.9344C8.44485 29.921 7.22696 29.3905 7.22696 28.3656C7.22722 27.851 7.02259 27.3571 6.65835 26.9934C6.29387 26.6293 5.79963 26.425 5.28439 26.4253ZM10.8266 10.4859C10.818 10.4881 10.0215 10.8317 10.0215 11.4953C10.0189 11.9407 9.77965 12.3512 9.39316 12.573C9.00641 12.795 8.53091 12.795 8.1444 12.573C7.75765 12.3512 7.51836 11.9407 7.51584 11.4953C7.51584 10.8441 6.75117 10.503 6.69859 10.481C6.38773 10.3547 6.1406 10.1089 6.0126 9.7992C5.88461 9.48923 5.88663 9.14111 6.01766 8.83269C6.14893 8.52424 6.39859 8.28123 6.71071 8.15792C6.71804 8.15438 7.51585 7.80981 7.51585 7.14614C7.51838 6.70077 7.75766 6.29029 8.1444 6.06847C8.5309 5.84642 9.0064 5.84642 9.39317 6.06847C9.77966 6.29027 10.0192 6.70077 10.0217 7.14614C10.0217 7.80727 10.8071 8.14932 10.8269 8.15792C11.1405 8.2817 11.3907 8.52624 11.5214 8.8367C11.6522 9.14692 11.6522 9.4968 11.5214 9.80728C11.3906 10.1175 11.1402 10.3621 10.8266 10.4859ZM37.3009 20.0222C34.8979 20.9665 32.8084 22.5656 31.27 24.6371C29.7313 26.7085 28.8058 29.1696 28.5981 31.7405C28.5966 32.2546 28.3915 32.7472 28.0275 33.1108C27.6635 33.4743 27.1703 33.6792 26.6555 33.6807C26.1387 33.6857 25.6417 33.4829 25.2762 33.1181C24.911 32.7531 24.7078 32.2567 24.7129 31.7405C24.4982 29.1719 23.5699 26.7139 22.0323 24.6436C20.4949 22.5733 18.4091 20.9727 16.0102 20.0221C15.5329 19.8291 15.1528 19.4535 14.9544 18.9788C14.7561 18.5041 14.7561 17.97 14.9544 17.4954C15.1527 17.0209 15.5329 16.6453 16.0102 16.4523C18.4091 15.5017 20.4949 13.9011 22.0323 11.8308C23.5699 9.76034 24.4982 7.3026 24.7129 4.73387C24.7078 4.21777 24.911 3.72138 25.2762 3.35658C25.6417 2.99154 26.1387 2.78869 26.6555 2.79374C27.1702 2.79525 27.6634 3.00013 28.0275 3.36365C28.3915 3.72717 28.5966 4.21976 28.5981 4.73389C28.8055 7.30482 29.7313 9.76587 31.2697 11.8373C32.8084 13.9088 34.8979 15.5077 37.3009 16.4522C37.7782 16.6452 38.1583 17.0208 38.3567 17.4953C38.555 17.9699 38.555 18.504 38.3567 18.9787C38.1584 19.4533 37.7782 19.8292 37.3009 20.0222ZM18.3023 40.8204C18.2973 40.3043 18.5001 39.8077 18.8656 39.4429C19.2311 39.0778 19.7281 38.875 20.2449 38.88C20.7597 38.8816 21.2529 39.0867 21.6169 39.4502C21.9809 39.8135 22.186 40.3061 22.1876 40.8202C22.3092 42.1406 22.7949 43.4017 23.5904 44.4632C24.3859 45.5247 25.4604 46.3457 26.6945 46.8346C27.0592 46.9816 27.3721 47.2332 27.5935 47.5581C27.8148 47.8827 27.9344 48.2657 27.9377 48.6586C27.9337 49.0463 27.813 49.4237 27.5914 49.7423C27.3696 50.0606 27.057 50.3049 26.6945 50.4433C25.4599 50.943 24.3866 51.7719 23.5919 52.8395C22.7969 53.9068 22.3113 55.1721 22.1875 56.4967C22.1794 57.0087 21.972 57.4973 21.6096 57.8595C21.2471 58.2215 20.7577 58.4287 20.245 58.4368C19.7302 58.4353 19.237 58.2304 18.873 57.8669C18.509 57.5033 18.3039 57.0107 18.3023 56.4966C18.1804 55.1661 17.6907 53.8956 16.8881 52.8268C16.0855 51.758 15.0014 50.9329 13.7567 50.4434C13.3986 50.2984 13.0902 50.0523 12.8697 49.7355C12.6489 49.4185 12.5252 49.0443 12.5136 48.6586C12.5219 48.2671 12.6438 47.8864 12.8646 47.5628C13.0852 47.2389 13.3951 46.9863 13.7567 46.8347C15.001 46.356 16.0861 45.5388 16.8894 44.476C17.6927 43.4129 18.182 42.1469 18.3023 40.8204ZM47.1304 7.13987C47.1304 7.13987 45.8872 7.683 45.8872 8.69196C45.8872 9.38491 45.5169 10.0255 44.9159 10.3721C44.3149 10.7187 43.5743 10.7187 42.9733 10.3721C42.3723 10.0255 42.002 9.38485 42.002 8.69196C42.002 7.68297 40.7975 7.13987 40.7198 7.13987C40.3644 6.98426 40.0614 6.72935 39.8477 6.40572C39.6342 6.08211 39.5186 5.70372 39.5156 5.31589C39.5193 4.92811 39.64 4.5507 39.8618 4.23213C40.0834 3.91383 40.396 3.66955 40.7588 3.5311C40.7588 3.5311 42.002 2.98797 42.002 1.94007C42.002 1.24686 42.3723 0.606496 42.9733 0.259925C43.5743 -0.0866463 44.3149 -0.0866721 44.9159 0.259925C45.5168 0.606521 45.8872 1.24693 45.8872 1.94007C45.8872 2.98767 47.0917 3.49217 47.1304 3.5311C47.4931 3.66954 47.8057 3.91382 48.0273 4.23213C48.2491 4.55069 48.3698 4.92812 48.3736 5.31589C48.3706 5.70871 48.2507 6.09168 48.0293 6.41633C47.808 6.74094 47.4949 6.99281 47.1304 7.13987Z" fill="white"/>
<path fill-rule="evenodd" clip-rule="evenodd" d="M116.949 101.41C118.875 100.655 120.113 98.8495 120.113 96.7917C120.113 94.734 118.898 92.9276 116.972 92.1734C107.296 88.332 100.578 83.6683 96.5193 77.9977C104.109 71.0697 108.42 61.2613 108.42 50.7896C108.419 30.6464 92.3678 14.2529 72.603 14.2529C52.8382 14.2529 36.7876 30.6464 36.7876 50.7896C36.7876 61.2615 41.0986 71.07 48.6879 77.9977C44.6297 83.6683 37.9111 88.332 28.2351 92.1734C26.3089 92.9281 25.094 94.734 25.094 96.7917C25.094 98.8495 26.3323 100.656 28.2584 101.41C33.3719 103.399 38.5994 103.308 44.0566 101.09C42.337 103.559 40.7091 106.051 39.2187 108.589C37.5447 111.425 38.0723 114.808 40.5254 117.049C42.9558 119.244 46.3724 119.427 49.0092 117.529C54.3285 113.665 59.1899 108.406 63.7985 101.524C64.1653 110.83 66.4811 117.964 70.8376 123.177C71.2724 123.703 71.9146 124 72.6025 124C73.2905 124 73.9327 123.703 74.3679 123.177C78.7244 117.964 81.0401 110.83 81.4069 101.525C86.0155 108.407 90.8769 113.666 96.1962 117.53C98.833 119.428 102.25 119.244 104.68 117.05C107.133 114.809 107.661 111.425 105.987 108.59C104.496 106.052 102.868 103.56 101.149 101.09C106.606 103.308 111.834 103.399 116.947 101.41H116.949ZM66.9023 45.6093C66.9023 49.5452 64.3498 52.7358 61.2011 52.7358C58.0525 52.7358 55.5 49.5452 55.5 45.6093C55.5 41.6735 58.0525 38.4829 61.2011 38.4829C64.3498 38.4829 66.9023 41.6735 66.9023 45.6093ZM84.4809 52.7358C87.6295 52.7358 90.182 49.5452 90.182 45.6094C90.182 41.6736 87.6295 38.483 84.4809 38.483C81.3322 38.483 78.7797 41.6736 78.7797 45.6094C78.7797 49.5452 81.3322 52.7358 84.4809 52.7358Z" fill="white"/>
</svg>
